<svg xmlns="http://www.w3.org/2000/svg" width="64" height="64" shape-rendering="geometricPrecision" text-rendering="geometricPrecision" image-rendering="optimizeQuality" fill-rule="evenodd" clip-rule="evenodd" viewBox="0 0 640 640"><path d="M579.999-.012H60C27-.012-.013 27-.013 60.001V580C-.013 613 27 640.012 60 640.012h519.999c33 0 60.013-27.012 60.013-60.012V60c0-33-27.013-60.012-60.013-60.012zM363.819 173.79h73.147V86.068h-73.147c-56.328 0-102.285 45.945-102.285 102.344v43.843h-58.489V320h58.477v233.932h87.734V320h73.075l14.634-87.745h-87.71v-43.843c0-7.938 6.698-14.634 14.564-14.634v.011z"/></svg>