<svg xmlns="http://www.w3.org/2000/svg" viewBox="0 0 3333 3333" shape-rendering="geometricPrecision" text-rendering="geometricPrecision" image-rendering="optimizeQuality" fill-rule="evenodd" clip-rule="evenodd"><path d="M1667 0c460 0 877 187 1179 488 302 302 488 718 488 1179 0 460-187 877-488 1179-302 302-718 488-1179 488-460 0-877-187-1179-488C186 2544 0 2128 0 1667c0-460 187-877 488-1179C790 186 1206 0 1667 0zm356 756c30 259 174 413 425 429v291c-145 14-273-34-421-123v543c0 691-753 907-1056 412-195-318-76-878 549-900v307c-48 8-98 20-145 35-139 47-217 135-195 290 42 297 588 385 542-196V756h301zm737-183c-280-280-666-453-1093-453S853 293 574 573c-280 280-453 666-453 1093s173 814 453 1093c280 280 666 453 1093 453s814-173 1093-453c280-280 453-666 453-1093s-173-814-453-1093z" fill-rule="nonzero"/></svg>